inDegrees=no
num_controls=7
num_derivatives=13
num_iterations=174
num_multipliers=7
num_parameters=0
num_slacks=7
num_states=26
objective=6.276939
objective_accelerations=0.713571
objective_balance=0.069337
objective_effort=0.569449
objective_height=4.854513
objective_ligament=0.070068
solver_duration=1836.114554
status=Solve_Succeeded
success=true
DataType=double
version=3
OpenSimVersion=4.4-2022-07-23-0e9fedc
endheader
time	/jointset/ground_pelvis/pelvis_tilt/value	/jointset/ground_pelvis/pelvis_tx/value	/jointset/ground_pelvis/pelvis_ty/value	/jointset/hip_l/hip_flexion_l/value	/jointset/hip_l/hip_adduction_l/value	/jointset/hip_l/hip_rotation_l/value	/jointset/back/lumbar_extension/value	/jointset/patellofemoral_l/patellar_flexion_l/value	/jointset/knee_l/knee_flexion_l/value	/jointset/knee_l/knee_adduction_l/value	/jointset/knee_l/knee_rotation_l/value	/jointset/ankle_l/ankle_angle_l/value	/jointset/subtalar_l/subtalar_angle_l/value	/jointset/ground_pelvis/pelvis_tilt/speed	/jointset/ground_pelvis/pelvis_tx/speed	/jointset/ground_pelvis/pelvis_ty/speed	/jointset/hip_l/hip_flexion_l/speed	/jointset/hip_l/hip_adduction_l/speed	/jointset/hip_l/hip_rotation_l/speed	/jointset/back/lumbar_extension/speed	/jointset/patellofemoral_l/patellar_flexion_l/speed	/jointset/knee_l/knee_flexion_l/speed	/jointset/knee_l/knee_adduction_l/speed	/jointset/knee_l/knee_rotation_l/speed	/jointset/ankle_l/ankle_angle_l/speed	/jointset/subtalar_l/subtalar_angle_l/speed	/forceset/tau_hip_flexion_l	/forceset/tau_hip_adduction_l	/forceset/tau_hip_rotation_l	/forceset/tau_knee_flexion_l	/forceset/tau_ankle_angle_l	/forceset/tau_subtalar_angle_l	/forceset/tau_lumbar_extension	lambda_cid13_p0	lambda_cid13_p1	lambda_cid13_p2	lambda_cid13_p3	lambda_cid13_p4	lambda_cid13_p5	lambda_cid14_p0	/jointset/ground_pelvis/pelvis_tilt/accel	/jointset/ground_pelvis/pelvis_tx/accel	/jointset/ground_pelvis/pelvis_ty/accel	/jointset/hip_l/hip_flexion_l/accel	/jointset/hip_l/hip_adduction_l/accel	/jointset/hip_l/hip_rotation_l/accel	/jointset/back/lumbar_extension/accel	/jointset/patellofemoral_l/patellar_flexion_l/accel	/jointset/knee_l/knee_flexion_l/accel	/jointset/knee_l/knee_adduction_l/accel	/jointset/knee_l/knee_rotation_l/accel	/jointset/ankle_l/ankle_angle_l/accel	/jointset/subtalar_l/subtalar_angle_l/accel	gamma_cid13_p0	gamma_cid13_p1	gamma_cid13_p2	gamma_cid13_p3	gamma_cid13_p4	gamma_cid13_p5	gamma_cid14_p0
0	-0.03682235410493469	0.05667742529587719	0.9203415963790361	0.3085811930696054	-0.2956403718705149	-0.3016049483966872	-0.3879500408040475	0.2499276582270892	0.249927658227084	-0.1745329251994329	-0.1745306883669942	-0.0008036543073733089	0.0004376819670423406	0	0	0	0	0	0	0	0	0	0	0	0	0	0.09587066994233601	-0.05590127441162181	-0.02302737595257768	-0.2675558626349995	0.2166287660702981	-0.02285405081889923	-0.01833104303287437	26.24051325676277	2.939760559048832	1.808374106778929	8.33007052193803	-612.7552766809475	-71.3112406899193	-23.19686910971826	-1.689299738144627	-2.29040887413951	-1.084224982283871	11.13105897312424	-0.8158462556093778	3.701268859274704	-7.719675581583375	10.58321631390175	10.58321631390176	1.708391611178947	-0.07429875659575018	1.803853345682007	-0.2672688178921906	1.808041391284276e-09	2.140205620595187e-07	7.874234494837128e-08	-9.073994150131649e-09	1.480818304046418e-07	4.452706122900992e-09	8.657865450003315e-09
0.01	-0.03690209839053981	0.05656467929571455	0.9202885752872392	0.3091240887799401	-0.2956812877049372	-0.301418891532848	-0.3883345829362663	0.2504465084660191	0.2504465084660127	-0.1744514812898637	-0.1745303291614423	-0.0007154304630772786	0.0004234969870175939	-0.01586424732056204	-0.02239167518864126	-0.01056207580160141	0.108005246576463	-0.008130095791956032	0.03702462616739229	-0.07634433569041184	0.1032923370122937	0.1032923370122933	0.01622715873212668	7.107845307230622e-05	0.01763448334366075	-0.002783871835144488	0.08912066052274717	-0.0653289956299789	-0.02212595221676517	-0.2621540083150394	0.2077752021706054	-0.00961772038515612	-0.01194592615605002	23.77457750290581	-2.309674360585591	2.568363720760845	7.864194291322328	-615.8290798842755	-81.75061544316367	-23.2027740416557	-1.522306180720764	-2.189919929725572	-1.035847879070963	10.54916543025758	-0.8036777513812126	3.675046557652728	-7.507198949620815	10.13058404737828	10.13058404737819	1.570483139044296	0.04770287329343106	1.741708741571402	-0.2760210030664574	-3.303563964607807e-08	2.152783394201226e-07	1.714944317047993e-07	2.668009453072747e-08	1.193182325519607e-10	-5.714952906954749e-08	-3.207557278132052e-10
0.02	-0.03713794893969512	0.05623274192596531	0.9201312036374317	0.3107298185421097	-0.2958019217993574	-0.300868190994898	-0.389465645702759	0.2519839504055665	0.2519839504055659	-0.174209638219007	-0.1745292808259562	-0.0004511692027719246	0.0003830583612932389	-0.03122125270945961	-0.043838273917316	-0.02087011160209167	0.2125668103669349	-0.01594365199960994	0.072928734822035	-0.1493041268548378	0.203718340123993	0.2037183401239915	0.03207852285684339	0.0001378259875338884	0.03520748320185261	-0.005250729139924859	0.0823706511031755	-0.07475671684834435	-0.02122452848092496	-0.2567521539950744	0.1989216382709133	0.003618610048578272	-0.00556080927920942	21.39157614859586	-7.571699254715532	3.328154785325256	7.281351706205843	-617.6554568355934	-92.08622007038757	-23.22010948292024	-1.587851351811624	-2.10139358214631	-1.033416982061642	10.44232241592604	-0.7525383387489468	3.477165356724779	-7.042766676386135	10.0099495337829	10.00994953378277	1.633232689696969	-0.07516494031791664	1.791556648588118	-0.2038659118194	-6.787932068344042e-08	2.165361167807265e-07	2.642465184612273e-07	6.24341832115866e-08	-1.478431939395379e-07	-1.18751764261996e-07	-9.299376905629726e-09
0.03	-0.03752504712395471	0.05569094385273157	0.919871708600035	0.3133645110570682	-0.2959989610211259	-0.2999648177591013	-0.3913094157146538	0.2545114850957484	0.2545114850957504	-0.1738111334929025	-0.1745282195168683	-1.17328857378619e-05	0.0003196019737225671	-0.04610641653978928	-0.06437581843471105	-0.03101280130334953	0.3138164077621996	-0.02340499884130688	0.1075587048928889	-0.218921769461532	0.3013139046550099	0.30131390465501	0.04753720906463407	8.292020717683783e-05	0.05264517861896646	-0.007390483679677726	0.07485233736441797	-0.06673356590522714	-0.02032928168919573	-0.2506001214017043	0.1942290678256829	0.0005105599181928239	0.001082505732210229	19.73014057240495	-6.019883431274934	3.182315845239411	7.252006283994733	-619.1324045784963	-87.81515456706748	-23.24808763794996	-1.425061488092972	-2.008093911311624	-1.002310944546964	9.882974125056352	-0.7341228285160735	3.427801467375826	-6.84204714328163	9.563157820243239	9.56315782024352	1.489468004858804	0.03065802647489837	1.714688509932773	-0.2115851436319675	-9.370840966275126e-08	1.84662857831405e-07	3.392533868311264e-07	8.53550546388092e-08	-2.610843550664724e-07	-1.740735859805123e-07	-1.982341502703385e-08
0.04	-0.03805823946441022	0.05494813852936841	0.919511263469548	0.3169950386907265	-0.2962688517056393	-0.2987207670955752	-0.3938335189707092	0.258000735012746	0.258000735012746	-0.1732605856210111	-0.174527444980894	0.0006010428897991635	0.0002362370570386177	-0.06044008394808439	-0.08403972394319972	-0.04106013022013009	0.4117338341066462	-0.03051394454844646	0.1410642203681514	-0.2853707756870345	0.3960613854853152	0.3960613854853176	0.06248715201397367	8.047136159938811e-05	0.06987537490246995	-0.009232434962580286	0.06733402362569901	-0.05871041496210581	-0.01943403489753432	-0.2444480888082964	0.1895364973804654	-0.002597490212182987	0.007725820743648765	18.14509363935971	-4.477157943025703	3.033032208858854	7.105772287238007	-619.474873116616	-83.44299314830741	-23.28567931070122	-1.47755206740461	-1.926665780365141	-1.014344825166184	9.775888205762437	-0.6820581118374648	3.252274437606503	-6.409039400147726	9.440332793640595	9.440332793640643	1.53148403800678	-0.06467355336201097	1.750056821865939	-0.1443052604493677	-1.193516307645765e-07	1.521064847313634e-07	4.138943744095508e-07	1.08011323648431e-07	-3.73609612048146e-07	-2.292659146377106e-07	-3.037931741531608e-08
0.05	-0.03873244448863092	0.05401313830881066	0.919050562437228	0.3215887429963423	-0.2966079399449776	-0.29714794148762	-0.3970060347002133	0.2624235793624933	0.2624235793624978	-0.1725629471829694	-0.1745270466376683	0.001385191898870787	0.0001361134300923748	-0.07431475910944761	-0.1028061873828243	-0.05108279231261364	0.5064560181725255	-0.03723624382063121	0.1733069712479024	-0.3486225644751685	0.4880330555296482	0.4880330555296522	0.07694592167410742	1.152213123931773e-05	0.08692263375788974	-0.01073331113259328	0.05999159970525487	-0.05740743531631206	-0.0185249467581084	-0.2395222506750228	0.1841889564666789	0.0002697140619682532	0.0141773691078887	16.57679302825915	-5.463805032962092	3.208627379843217	6.693975201022923	-619.8252302591767	-84.45104441572536	-23.33157616225397	-1.329505813936652	-1.828494922861457	-0.9967099428273745	9.237718761027031	-0.6572733490905822	3.181128880222413	-6.206777757209894	9.004425930793044	9.004425930793225	1.388947674902658	0.02391061362873069	1.677291074328572	-0.1442031540975246	-1.361182694673187e-07	9.549356663198985e-08	4.574068862894953e-07	1.215610135504567e-07	-4.542924033441678e-07	-2.687263338470957e-07	-4.001805292154336e-08
0.06	-0.03954281237915448	0.05289510179443627	0.9184895381756759	0.3271131361934202	-0.2970122426798737	-0.2952585176774539	-0.4007957741454112	0.2677519087768828	0.2677519087768845	-0.1717235461993449	-0.1745269545424299	0.002338859627886286	2.273616968194638e-05	-0.08767265720817781	-0.1206469827065259	-0.06112477606657122	0.5978716123994582	-0.04355684366007911	0.2043838608101768	-0.4088155188258343	0.577158398412518	0.5771583984125231	0.09083966112968	1.922176094895402e-05	0.1037791188912516	-0.01188316165541749	0.05264917578481065	-0.05610445567052518	-0.01761585861873283	-0.2345964125417405	0.1788414155528925	0.003136918336113127	0.02062891747213019	15.07572330190415	-6.460309492066148	3.383607862769228	6.169666506458871	-619.1761447102618	-85.37226802309587	-23.38428543920184	-1.374196654877911	-1.741532157180665	-1.018209157460993	9.11457023797313	-0.6017182252900839	3.019102174111185	-5.797272512654013	8.871067361347967	8.871067361347929	1.418477997094569	-0.04934378134806977	1.71190207745425	-0.07410013101163615	-1.525111573322047e-07	3.786774137474967e-08	4.996087255084512e-07	1.347272685426888e-07	-5.33634459242899e-07	-3.075243568692044e-07	-4.961817087484199e-08
